# xmcd
#
# Track frame offsets:
#	150
#	13600
#	27862
#	46827
#	68053
#	89944
#	108250
#	130080
#	146878
#	175258
#	189914
#	205784
#	225830
#	243718
#	253763
#	272877
#	291017
#	312655
#	336288
#
# Disc length: 4740 seconds
#
# Revision: 1
# Processed by: cddbd v1.5.2PL0 Copyright (c) Steve Scherf et al.
# Submitted via: audiograbber 1.83.01
#
DISCID=19128213
DTITLE=Lizzy Moore - The Boys Are Back On The Streets In Town
DYEAR=2014
DGENRE=Rock/Blues
TTITLE0=Are You Ready
TTITLE1=Cold Sweat
TTITLE2=Shapes Of Things
TTITLE3=Hollywood (Down On Your Luck)
TTITLE4=Chinatown
TTITLE5=Killer On The Loose
TTITLE6=Thunder And Lightning
TTITLE7=Run For Cover
TTITLE8=The Sun Goes Down
TTITLE9=Dancing In The Moonlight
TTITLE10=Waiting For An Alibi
TTITLE11=Back On The Streets
TTITLE12=Rosalie
TTITLE13=Don't Belive A Word
TTITLE14=Emerald
TTITLE15=Jailbreak
TTITLE16=The Boys Are Back In Town
TTITLE17=Cowboy Song
TTITLE18=Out In The Fields
EXTD=
EXTT0=
EXTT1=
EXTT2=
EXTT3=
EXTT4=
EXTT5=
EXTT6=
EXTT7=
EXTT8=
EXTT9=
EXTT10=
EXTT11=
EXTT12=
EXTT13=
EXTT14=
EXTT15=
EXTT16=
EXTT17=
EXTT18=
PLAYORDER=
